<?xml version="1.0" encoding="utf-8"?>
<!-- Generator: Adobe Illustrator 16.0.0, SVG Export Plug-In . SVG Version: 6.00 Build 0)  -->
<!DOCTYPE svg PUBLIC "-//W3C//DTD SVG 1.1//EN" "http://www.w3.org/Graphics/SVG/1.1/DTD/svg11.dtd">
<svg version="1.1" id="Layer_1" xmlns="http://www.w3.org/2000/svg" xmlns:xlink="http://www.w3.org/1999/xlink" x="0px" y="0px"
	 width="500px" height="168px" viewBox="0 0 500 168" enable-background="new 0 0 500 168" xml:space="preserve">
<g>
	<path fill-rule="evenodd" clip-rule="evenodd" d="M394.153,158.662c-9.354,0-18.336,0-27.747,0c0-3.536,0-7.014,0-10.148
		c-4.302,2.727-8.174,5.99-12.629,7.846c-11.522,4.799-22.5,2.375-32.557-4.344c-12.049-8.051-18.944-19.889-22.669-33.527
		c-5.554-20.34-4.051-40.186,6.158-58.888c6.339-11.614,15.101-20.946,28.287-24.652c11.372-3.195,22.111-1.506,31.542,6.126
		c0.204,0.165,0.455,0.405,0.807,0.578c0.453-1.783,0.822-3.693,1.373-5.375c2.191-6.691,8.658-11.14,14.721-10.201
		c8.124,1.257,12.704,6.468,12.708,14.558c0.011,38.403,0.006,76.809,0.006,115.213
		C394.153,156.682,394.153,157.516,394.153,158.662z M367.734,94.646c-0.152-1.842-0.27-4.656-0.639-7.439
		c-0.986-7.431-3.041-14.479-7.973-20.366c-6.587-7.863-16.662-8.689-24.308-1.853c-1.926,1.721-3.618,3.837-4.967,6.048
		c-5.511,9.04-7.138,19.002-6.403,29.418c0.621,8.834,2.66,17.227,8.461,24.248c3.346,4.047,7.534,6.777,12.929,7.06
		c6.857,0.357,11.104-3.978,14.719-8.888C365.49,114.809,367.586,105.482,367.734,94.646z"/>
	<path fill-rule="evenodd" clip-rule="evenodd" d="M76.104,28.88c0,0,0,18.834,0,28.384c2.56-4.116,4.554-7.922,7.105-11.311
		c8.92-11.851,22.67-15.793,34.838-9.856c10.853,5.296,16.076,14.605,16.173,26.343c0.259,31.541,0.089,94.628,0.089,94.628
		l0.055,1.523c0,0-18.458,0-27.83,0c0-32.315,0.048-97.971,0.048-97.971l-2.286,1.601L76.132,80.9l-0.046,2.693
		c0,0,0.115,41.309-0.085,61.96c-0.03,3.136-0.804,6.625-2.348,9.312c-3.238,5.641-9.42,7.562-15.625,5.699
		c-5.688-1.708-9.684-7.084-9.744-13.379c-0.076-7.979-0.02-15.96-0.02-23.939c0-24.22-0.046-72.662-0.046-72.662v-2.831
		l25.332-17.116L76.104,28.88z"/>
	<path fill-rule="evenodd" clip-rule="evenodd" d="M402.151,37.674c3.304,0,9.231,0,9.231,0l21.893-0.07l1.387,2.82
		c0,0,9.738,19.431,14.625,29.137c0.42,0.83,0.842,1.659,1.483,2.921c0.605-1.136,1.065-1.96,1.49-2.803
		c5.02-9.954,15.089-29.848,15.089-29.848l1.197-2.056c0,0,20.656-0.092,30.889-0.092c-0.578,1.225-0.984,2.137-1.433,3.029
		c-8.748,17.415-26.306,52.211-26.306,52.211l-1.278,2.574c0,0,15.797,31.195,22.933,45.542c4.445,8.939-0.511,18.674-10.239,20.36
		c-5.764,0.998-11.664-2.134-14.567-7.853c-5.47-10.771-10.888-21.571-16.331-32.357c-0.414-0.824-0.863-1.63-1.498-2.818
		c-7.62,15.13-15.073,29.924-22.698,45.063c-8.229-4.17-16.362-8.29-24.7-12.513c0.46-1.019,0.835-1.926,1.275-2.802
		c8.412-16.746,26.482-52.56,26.482-52.56l-1.148-2.574c0,0-17.558-34.796-26.308-52.21
		C403.166,39.877,402.755,38.958,402.151,37.674z"/>
	<path fill-rule="evenodd" clip-rule="evenodd" d="M217.825,45.212c-3.583,8.1-7.094,16.035-10.391,23.482
		c-5.113-2.446-9.829-5.196-14.893-6.946c-3.225-1.116-7.064-1.421-10.45-0.908c-7.644,1.157-10.824,9.906-5.705,15.702
		c2.412,2.73,5.67,4.953,8.941,6.632c5.735,2.943,11.863,5.108,17.67,7.923c12.394,6.008,18.059,16.446,18.715,29.818
		c1.053,21.503-10.833,36.748-32.101,39.843c-16.803,2.443-31.576-2.617-43.108-15.528c-3.701-4.144-5.331-9.063-3.274-14.597
		c1.913-5.144,5.828-7.883,11.134-8.751c3.667-0.6,6.771,0.565,9.601,2.936c3.015,2.523,6.034,5.105,9.357,7.172
		c4.323,2.689,9.071,4.038,14.202,2.186c4.104-1.482,6.986-4.218,7.618-8.587c0.599-4.146-0.603-8.117-4.264-10.353
		c-3.951-2.41-8.233-4.427-12.597-5.979c-6.847-2.438-13.553-5.021-19.063-9.916c-16.587-14.735-16.135-41.725,0.797-56.236
		c10.76-9.222,23.1-10.89,36.437-8.001C204.231,36.787,211.441,39.793,217.825,45.212z"/>
	<path fill-rule="evenodd" clip-rule="evenodd" d="M246.001,63.03c-3.848,0-7.309,0.016-10.768-0.003
		c-6.743-0.038-12.142-5.062-12.251-11.377c-0.104-6.021,5.255-11.271,11.871-11.491c3.558-0.118,7.123-0.021,11.149-0.021
		c0-3.375,0.008-9.845,0.008-9.845l0.082-10.239l8.201-5.477l17.922-12.152l2.794-1.762V40.13l15.664,0.019l0.634,2.556
		l4.621,20.265c0,0-13.686,0-20.676,0c0,34.737,0,104.529,0,104.529s-1.662-1.109-2.203-1.494
		c-8.492-6.017-27.01-19.037-27.01-19.037l-0.045-2.819c0,0,0.008-51.611,0.008-77.417C246.001,65.621,246.001,64.51,246.001,63.03z
		"/>
	<path fill-rule="evenodd" clip-rule="evenodd" d="M29.64,158.697c-9.822,0-29.075,0-29.075,0l0.016-2.737
		c0,0-0.022-68.52,0.006-102.778C0.592,45.803,4.7,40.116,11.148,38.281c9.361-2.665,18.444,4.195,18.475,14.066
		c0.054,16.989,0.016,33.979,0.016,50.965c0,17.365,0,34.729,0,52.093C29.64,156.418,29.64,157.43,29.64,158.697z"/>
	<path fill-rule="evenodd" clip-rule="evenodd" d="M3.721,11.96C3.719,5.649,8.824,0.508,15.101,0.5
		c6.28-0.007,11.418,5.134,11.425,11.43c0.006,6.262-5.158,11.473-11.391,11.494C8.933,23.447,3.723,18.213,3.721,11.96z"/>
</g>
</svg>
